<?xml version="1.0" standalone="no"?>
<!DOCTYPE svg PUBLIC "-//W3C//DTD SVG 20010904//EN"
 "http://www.w3.org/TR/2001/REC-SVG-20010904/DTD/svg10.dtd">
<svg version="1.0" xmlns="http://www.w3.org/2000/svg"
 width="379.000000pt" height="470.000000pt" viewBox="0 0 379.000000 470.000000"
 preserveAspectRatio="xMidYMid meet">

<g transform="translate(0.000000,470.000000) scale(0.100000,-0.100000)"
fill="#000000" stroke="none">
<path d="M18 4544 c2 -71 8 -136 13 -144 6 -12 8 -10 9 9 0 15 15 37 42 61 42
37 42 38 43 104 0 61 2 66 21 66 13 0 24 -8 27 -20 7 -27 41 -26 60 3 l14 22
1629 -2 c896 -2 1693 -5 1772 -9 86 -3 142 -2 142 4 0 5 -35 12 -77 15 -43 4
-892 10 -1888 14 l-1810 6 3 -129z"/>
<path d="M1807 4521 c-39 -35 -94 -57 -162 -65 -55 -7 -115 -42 -142 -82 -9
-15 -20 -54 -24 -87 -4 -33 -13 -63 -21 -68 -7 -5 -33 -9 -58 -9 -25 -1 -64
-9 -87 -18 -47 -19 -123 -84 -123 -104 0 -8 -13 -27 -30 -43 -34 -33 -56 -94
-64 -184 -3 -36 -16 -85 -29 -110 -21 -43 -22 -57 -20 -216 4 -265 16 -313 57
-227 19 38 56 173 56 205 0 36 105 283 150 351 53 82 152 175 217 206 64 30
194 38 248 16 72 -31 126 -36 214 -21 45 8 92 22 104 30 30 21 54 19 160 -15
102 -33 148 -61 229 -143 97 -97 136 -175 174 -343 9 -43 27 -101 39 -129 12
-27 26 -66 30 -85 4 -19 18 -71 32 -115 22 -70 24 -91 18 -168 -10 -119 -15
-123 -110 -84 -64 25 -78 35 -90 63 -10 25 -29 41 -77 65 -62 32 -65 32 -193
30 -181 -2 -223 -16 -275 -86 -47 -64 -81 -75 -175 -56 -70 15 -85 25 -85 57
0 12 -7 30 -16 39 -38 38 -65 43 -224 41 -176 -2 -190 -6 -267 -82 -40 -40
-50 -45 -78 -40 -70 13 -87 -29 -35 -86 16 -18 30 -36 30 -40 0 -5 7 -8 15 -8
15 0 19 18 16 70 -3 38 26 57 99 69 84 14 149 14 189 0 29 -10 31 -13 17 -28
-9 -10 -16 -25 -16 -34 0 -8 -9 -19 -20 -22 -11 -3 -20 -11 -20 -17 0 -5 9
-12 20 -15 12 -3 20 -14 20 -27 0 -12 10 -32 23 -44 12 -11 28 -28 35 -36 26
-32 94 -15 169 40 32 24 32 24 19 68 -17 57 -8 72 36 60 45 -13 50 -56 13
-114 -27 -43 -30 -85 -6 -85 8 0 23 16 34 35 21 39 73 97 100 112 27 14 48 -7
41 -41 -4 -20 4 -48 29 -97 19 -38 40 -88 47 -111 7 -23 30 -59 51 -81 46 -45
59 -91 34 -115 -15 -16 -19 -15 -55 3 -59 30 -74 26 -119 -32 -11 -15 -8 -18
30 -28 52 -14 184 -3 204 17 16 16 12 59 -11 111 -8 18 -13 36 -10 41 3 4 70
6 149 3 98 -3 155 -1 180 7 45 15 40 33 -6 20 -84 -24 -284 0 -382 46 -41 20
-46 31 -31 75 16 50 46 50 137 2 67 -35 78 -38 121 -31 46 7 190 78 238 117
27 22 20 42 -14 42 -15 0 -27 9 -35 26 -10 23 -14 24 -28 13 -20 -18 -44 -13
-99 17 -56 31 -88 30 -169 -6 -67 -30 -92 -35 -132 -24 -51 14 -31 53 42 81
44 17 171 17 178 -1 4 -10 18 -11 68 -4 78 12 192 -3 228 -30 21 -15 26 -29
27 -63 1 -24 2 -47 2 -51 2 -7 120 38 138 53 13 11 27 73 54 244 23 150 22
302 -4 401 -12 46 -13 69 -5 95 7 24 6 58 -1 114 -10 71 -23 108 -76 218 -8
16 -14 40 -14 53 0 30 -15 60 -74 149 -25 37 -46 71 -46 76 0 4 -9 11 -20 14
-11 3 -20 11 -20 17 0 18 -54 85 -85 106 -16 11 -79 39 -140 62 -60 23 -117
50 -125 60 -21 26 -111 40 -256 40 -122 0 -124 0 -157 -29z m443 -1636 c0 -27
-22 -33 -50 -15 -13 9 -12 12 4 25 29 22 46 18 46 -10z m183 -32 c-7 -2 -19
-2 -25 0 -7 3 -2 5 12 5 14 0 19 -2 13 -5z"/>
<path d="M2811 2831 c-11 -7 -15 -41 -16 -153 -1 -78 -5 -154 -9 -168 -4 -14
-10 -56 -13 -95 -3 -38 -9 -74 -13 -80 -9 -11 -24 -106 -24 -145 0 -14 4 -25
9 -25 5 0 13 11 16 25 18 63 29 123 29 151 0 16 9 47 19 67 11 21 26 63 34 94
8 31 25 72 38 90 19 26 25 49 27 109 5 94 -13 139 -56 139 -15 0 -33 -4 -41
-9z"/>
<path d="M990 2810 c0 -5 5 -10 10 -10 6 0 10 5 10 10 0 6 -4 10 -10 10 -5 0
-10 -4 -10 -10z"/>
<path d="M1725 2694 c-30 -20 -189 -36 -282 -29 -57 5 -83 3 -83 -4 0 -8 50
-11 156 -11 123 0 163 3 190 16 33 16 50 31 43 39 -2 1 -13 -3 -24 -11z"/>
<path d="M1965 2231 c3 -11 1 -22 -5 -26 -22 -13 -8 -23 42 -30 28 -4 72 -19
97 -32 59 -32 99 -44 126 -37 24 6 31 40 9 48 -8 3 -14 12 -14 20 0 9 -24 19
-74 30 -40 9 -82 23 -92 31 -10 8 -36 15 -57 15 -33 0 -38 -3 -32 -19z"/>
<path d="M1620 2173 c-16 -7 -39 -33 -40 -45 0 -13 27 -9 64 9 28 13 33 19 25
30 -12 14 -24 15 -49 6z"/>
<path d="M1845 2060 c-7 -11 53 -28 78 -22 9 2 17 11 17 18 0 16 -85 20 -95 4z"/>
<path d="M2651 2009 c-47 -42 -61 -49 -97 -49 -24 0 -45 -4 -49 -10 -8 -12
-98 -10 -106 2 -9 14 -72 -7 -92 -30 -8 -9 -19 -30 -23 -47 -4 -16 -11 -36
-17 -42 -5 -7 -7 -13 -3 -13 4 0 0 -11 -9 -24 -14 -21 -24 -23 -126 -29 -61
-3 -116 -10 -122 -15 -7 -6 -34 -13 -62 -18 -27 -4 -63 -17 -80 -29 -67 -51
-109 -68 -163 -66 -28 1 -63 5 -75 10 -31 12 -60 -4 -37 -19 68 -48 153 -90
179 -90 24 0 31 -4 31 -20 0 -11 5 -20 11 -20 6 0 9 -7 5 -15 -10 -28 14 -59
92 -118 74 -56 79 -58 127 -55 60 5 110 27 190 84 58 41 223 204 298 294 34
42 38 44 51 27 8 -10 17 -38 20 -62 4 -24 16 -70 28 -102 29 -83 22 -223 -17
-308 -54 -119 -53 -114 -39 -188 6 -32 3 -43 -23 -75 -35 -44 -103 -156 -103
-169 0 -13 -134 -190 -188 -248 -82 -88 -136 -157 -232 -295 -51 -74 -102
-145 -113 -157 -22 -24 -57 -31 -57 -12 0 7 -17 49 -39 94 -52 111 -123 202
-175 226 -23 10 -48 24 -56 31 -25 21 -65 81 -80 116 -7 18 -48 72 -91 119
-97 106 -173 215 -207 296 -49 120 -32 360 36 492 14 28 25 210 14 243 -15 42
-120 -34 -249 -180 -23 -26 -54 -50 -70 -54 -15 -4 -35 -13 -43 -20 -9 -7 -54
-22 -100 -33 -84 -19 -283 -93 -370 -136 -25 -12 -79 -32 -120 -44 -99 -30
-198 -80 -206 -103 -8 -26 -55 -68 -76 -68 -17 0 -18 -31 -18 -540 l0 -540
713 0 c391 0 1173 5 1737 10 564 5 1096 10 1183 11 l157 1 0 288 c0 266 -1
289 -17 293 -17 4 -17 5 0 6 15 1 17 16 17 161 0 134 -2 160 -15 160 -20 0
-44 50 -41 83 3 21 -1 27 -15 27 -11 0 -19 5 -19 11 0 6 -7 8 -16 5 -10 -4
-14 -1 -12 6 3 7 15 15 28 18 47 11 28 38 -22 32 -3 -1 -11 5 -18 13 -10 12
-5 16 32 22 l43 7 -35 11 c-19 6 -146 65 -282 132 -177 87 -274 129 -345 148
l-98 27 -95 97 c-90 92 -179 165 -248 203 l-31 16 47 94 c25 51 49 95 52 98
11 8 20 55 12 66 -4 8 -26 -6 -61 -37z m1019 -1149 c-20 -13 -40 -13 -40 0 0
6 12 10 28 10 21 0 24 -2 12 -10z m-7 -67 c-7 -2 -21 -2 -30 0 -10 3 -4 5 12
5 17 0 24 -2 18 -5z m60 -10 c-7 -2 -21 -2 -30 0 -10 3 -4 5 12 5 17 0 24 -2
18 -5z m-2105 -473 c13 -22 6 -50 -13 -50 -6 0 -27 7 -45 17 -33 16 -33 16
-13 32 27 23 57 23 71 1z"/>
<path d="M3725 1060 c-3 -5 -2 -10 4 -10 5 0 13 5 16 10 3 6 2 10 -4 10 -5 0
-13 -4 -16 -10z"/>
</g>
</svg>
